# xmcd
#
# Track frame offsets: 
#        150
#        16400
#        35950
#        52800
#        70962
#        91600
#        109805
#        127447
#        143500
#        160305
#        176862
#        191347
#        208820
#        227772
#        245875
#        261120
#        278132
#        295510
#        316625
#
# Disc length: 4498 seconds
#
# Revision: 3
# Processed by: cddbd v1.5.2PL0 Copyright (c) Steve Scherf et al.
# Submitted via: ExactAudioCopy v0.99pb4
#
DISCID=18119013
DTITLE=Various Artist - DJ Hits vol 11
DYEAR=1994
DGENRE=Eurodance
TTITLE0=2 Brother On The 4 Floor - Never Alone
TTITLE1=Sheeva - I Feel Good
TTITLE2=Major T - Keep The Frequency Clear
TTITLE3=Rosalla - I Love Music
TTITLE4=Haddaway - Shout
TTITLE5=D-Ream - U R The Best Thing
TTITLE6=Take That - Everything Changes
TTITLE7=Beatproduction feat. Mecool - The Beat Is My Life
TTITLE8=Dayeng - Revelation
TTITLE9=Face II Face - I Want You
TTITLE10=Bad Boys Blue - My Love For You
TTITLE11=Technotronic - Mey, Yoh, Here We Go
TTITLE12=DJ Bobo - Take Control
TTITLE13=CB Milton - It's Aloving Thing
TTITLE14=Urban Cookie Collective - Sail Away
TTITLE15=Blue System - 6 Years, 6 Nights
TTITLE16=Inspiral Carpets - Saturn 5
TTITLE17=Daryl Hall - Stop Loving Me, Stop Loving You
TTITLE18=East 17 - Around The World
EXTD=
EXTT0=
EXTT1=
EXTT2=
EXTT3=
EXTT4=
EXTT5=
EXTT6=
EXTT7=
EXTT8=
EXTT9=
EXTT10=
EXTT11=
EXTT12=
EXTT13=
EXTT14=
EXTT15=
EXTT16=
EXTT17=
EXTT18=
PLAYORDER=
